<svg width="48" height="48" viewBox="0 0 48 48" fill="none" xmlns="http://www.w3.org/2000/svg">
<path d="M26.4444 23.0222L32.5556 29.1333C33.0037 29.5815 33.2278 30.1519 33.2278 30.8444C33.2278 31.537 33.0037 32.1074 32.5556 32.5556C32.1074 33.0037 31.537 33.2278 30.8444 33.2278C30.1519 33.2278 29.5815 33.0037 29.1333 32.5556L22.2889 25.7111C22.0444 25.4667 21.8611 25.1913 21.7389 24.8849C21.6167 24.5801 21.5556 24.2648 21.5556 23.9389V14.2222C21.5556 13.5296 21.7902 12.9487 22.2596 12.4793C22.7273 12.0116 23.3074 11.7778 24 11.7778C24.6926 11.7778 25.2736 12.0116 25.7429 12.4793C26.2106 12.9487 26.4444 13.5296 26.4444 14.2222V23.0222ZM24 46C19.0704 46 14.65 44.5431 10.7389 41.6293C6.82778 38.7172 4.2 34.9185 2.85556 30.2333C2.65185 29.5 2.72356 28.8074 3.07067 28.1556C3.41615 27.5037 3.95556 27.0963 4.68889 26.9333C5.38148 26.7704 6.00318 26.9227 6.554 27.3904C7.10318 27.8598 7.47963 28.4407 7.68333 29.1333C8.74259 32.7185 10.7902 35.6111 13.8262 37.8111C16.8606 40.0111 20.2519 41.1111 24 41.1111C28.7667 41.1111 32.8098 39.4505 36.1293 36.1293C39.4505 32.8098 41.1111 28.7667 41.1111 24C41.1111 19.2333 39.4505 15.1894 36.1293 11.8682C32.8098 8.54867 28.7667 6.88889 24 6.88889C21.1889 6.88889 18.5611 7.54074 16.1167 8.84444C13.6722 10.1481 11.6148 11.9407 9.94444 14.2222H14.2222C14.9148 14.2222 15.4958 14.4561 15.9651 14.9238C16.4328 15.3931 16.6667 15.9741 16.6667 16.6667C16.6667 17.3593 16.4328 17.9394 15.9651 18.4071C15.4958 18.8764 14.9148 19.1111 14.2222 19.1111H4.44444C3.75185 19.1111 3.1717 18.8764 2.704 18.4071C2.23467 17.9394 2 17.3593 2 16.6667V6.88889C2 6.1963 2.23467 5.61533 2.704 5.146C3.1717 4.6783 3.75185 4.44444 4.44444 4.44444C5.13704 4.44444 5.718 4.6783 6.18733 5.146C6.65504 5.61533 6.88889 6.1963 6.88889 6.88889V10.1889C8.96667 7.58148 11.5032 5.56481 14.4984 4.13889C17.4921 2.71296 20.6593 2 24 2C27.0556 2 29.918 2.58015 32.5873 3.74044C35.255 4.90237 37.5773 6.47089 39.554 8.446C41.5291 10.4227 43.0976 12.745 44.2596 15.4127C45.4199 18.082 46 20.9444 46 24C46 27.0556 45.4199 29.9172 44.2596 32.5849C43.0976 35.2542 41.5291 37.5764 39.554 39.5516C37.5773 41.5283 35.255 43.0976 32.5873 44.2596C29.918 45.4199 27.0556 46 24 46Z" fill="#26262E"/>
</svg>
