<svg width="48" height="48" viewBox="0 0 48 48" fill="none" xmlns="http://www.w3.org/2000/svg">
<path d="M39 3H13.875C13.6687 3 13.5 3.16875 13.5 3.375V6C13.5 6.20625 13.6687 6.375 13.875 6.375H37.125V38.625C37.125 38.8312 37.2938 39 37.5 39H40.125C40.3312 39 40.5 38.8312 40.5 38.625V4.5C40.5 3.67031 39.8297 3 39 3ZM33 9H9C8.17031 9 7.5 9.67031 7.5 10.5V35.3766C7.5 35.775 7.65937 36.1547 7.94062 36.4359L16.0641 44.5594C16.1672 44.6625 16.2844 44.7469 16.4109 44.8172V44.9062H16.6078C16.7719 44.9672 16.9453 45 17.1234 45H33C33.8297 45 34.5 44.3297 34.5 43.5V10.5C34.5 9.67031 33.8297 9 33 9ZM16.4062 40.1344L12.3703 36.0938H16.4062V40.1344ZM31.125 41.625H19.4062V34.9688C19.4062 33.9328 18.5672 33.0938 17.5312 33.0938H10.875V12.375H31.125V41.625Z" fill="#26262E"/>
</svg>
