<svg width="105" height="105" viewBox="0 0 105 105" fill="none" xmlns="http://www.w3.org/2000/svg">
<path d="M59.9865 52.497C59.9865 57.1236 57.0261 61.7591 51.6107 61.7591C46.1983 61.7591 42.9425 57.1236 42.9425 52.497C42.9425 47.8734 46.1983 43.2379 51.6107 43.2379C57.0261 43.2379 59.9865 47.8734 59.9865 52.497ZM85.997 41.9379V86H52.5H41.9379C30.3743 85.997 19 74.6227 19 63.0621V19H52.5H63.0621C74.6227 19 85.997 30.3743 85.997 41.9379ZM68.6576 35.7485C65.916 35.7485 63.4845 37.0632 61.9571 39.0959C59.1563 36.9953 55.676 35.7485 51.9062 35.7485C42.6559 35.7485 35.1576 43.2468 35.1576 52.497C35.1576 61.7473 42.6559 69.2485 51.9062 69.2485C55.676 69.2485 59.1563 68.0018 61.9571 65.8982C62.1934 66.2144 62.4534 66.5127 62.7341 66.7934C64.2497 68.312 66.3443 69.2485 68.6576 69.2485V35.7485Z" fill="#26262E"/>
</svg>
