<svg width="48" height="48" viewBox="0 0 48 48" fill="none" xmlns="http://www.w3.org/2000/svg">
<path d="M37.6735 32.5306C36.074 32.5306 34.598 33.0918 33.4418 34.0291L21.8133 25.6163C22.008 24.5476 22.008 23.4524 21.8133 22.3837L33.4418 13.9709C34.598 14.9082 36.074 15.4694 37.6735 15.4694C41.3888 15.4694 44.4082 12.45 44.4082 8.73469C44.4082 5.01939 41.3888 2 37.6735 2C33.9582 2 30.9388 5.01939 30.9388 8.73469C30.9388 9.38571 31.0286 10.0087 31.2026 10.6036L20.1577 18.601C18.5189 16.4291 15.9148 15.0204 12.9796 15.0204C8.01837 15.0204 4 19.0388 4 24C4 28.9612 8.01837 32.9796 12.9796 32.9796C15.9148 32.9796 18.5189 31.5709 20.1577 29.399L31.2026 37.3964C31.0286 37.9913 30.9388 38.6199 30.9388 39.2653C30.9388 42.9806 33.9582 46 37.6735 46C41.3888 46 44.4082 42.9806 44.4082 39.2653C44.4082 35.55 41.3888 32.5306 37.6735 32.5306ZM37.6735 5.81633C39.2842 5.81633 40.5918 7.12398 40.5918 8.73469C40.5918 10.3454 39.2842 11.6531 37.6735 11.6531C36.0628 11.6531 34.7551 10.3454 34.7551 8.73469C34.7551 7.12398 36.0628 5.81633 37.6735 5.81633ZM12.9796 28.9388C10.2577 28.9388 8.04082 26.7219 8.04082 24C8.04082 21.2781 10.2577 19.0612 12.9796 19.0612C15.7015 19.0612 17.9184 21.2781 17.9184 24C17.9184 26.7219 15.7015 28.9388 12.9796 28.9388ZM37.6735 42.1837C36.0628 42.1837 34.7551 40.876 34.7551 39.2653C34.7551 37.6546 36.0628 36.3469 37.6735 36.3469C39.2842 36.3469 40.5918 37.6546 40.5918 39.2653C40.5918 40.876 39.2842 42.1837 37.6735 42.1837Z" fill="#26262E"/>
</svg>
