<svg width="48" height="48" viewBox="0 0 48 48" fill="none" xmlns="http://www.w3.org/2000/svg">
<path d="M2.66667 14.6667H12C13.9627 14.6667 15.7147 15.7093 16.936 17.336C17.8034 15.7306 18.8706 14.2414 20.112 12.904C17.9707 10.7093 15.136 9.33334 12 9.33334H2.66667C1.95942 9.33334 1.28115 9.61429 0.781048 10.1144C0.280951 10.6145 0 11.2928 0 12C0 12.7072 0.280951 13.3855 0.781048 13.8856C1.28115 14.3857 1.95942 14.6667 2.66667 14.6667ZM23.16 22.9627C24.6293 18.544 29.176 14.6667 32.8907 14.6667H37.792L34.344 18.1147C34.0964 18.3623 33.9 18.6562 33.766 18.9797C33.632 19.3032 33.5631 19.6499 33.5631 20C33.5631 20.3501 33.632 20.6969 33.766 21.0203C33.9 21.3438 34.0964 21.6378 34.344 21.8853C34.5916 22.1329 34.8855 22.3293 35.209 22.4633C35.5325 22.5973 35.8792 22.6663 36.2293 22.6663C36.5795 22.6663 36.9262 22.5973 37.2497 22.4633C37.5732 22.3293 37.8671 22.1329 38.1147 21.8853L48 12L38.1147 2.11467C37.8671 1.86709 37.5732 1.67069 37.2497 1.5367C36.9262 1.40271 36.5795 1.33374 36.2293 1.33374C35.8792 1.33374 35.5325 1.40271 35.209 1.5367C34.8855 1.67069 34.5916 1.86709 34.344 2.11467C34.0964 2.36226 33.9 2.65618 33.766 2.97967C33.632 3.30315 33.5631 3.64986 33.5631 4C33.5631 4.35014 33.632 4.69685 33.766 5.02034C33.9 5.34382 34.0964 5.63775 34.344 5.88534L37.792 9.33334H32.8907C26.8267 9.33334 20.328 14.5787 18.0987 21.2773L16.84 25.04C15.1307 30.176 11.3147 33.3333 9.33333 33.3333H2.66667C1.95942 33.3333 1.28115 33.6143 0.781048 34.1144C0.280951 34.6145 0 35.2928 0 36C0 36.7072 0.280951 37.3855 0.781048 37.8856C1.28115 38.3857 1.95942 38.6667 2.66667 38.6667H9.33333C14.232 38.6667 19.6347 33.5333 21.9013 26.7227L23.16 22.9627ZM34.344 26.1147C34.0961 26.3621 33.8995 26.656 33.7654 26.9795C33.6312 27.303 33.5621 27.6498 33.5621 28C33.5621 28.3502 33.6312 28.697 33.7654 29.0205C33.8995 29.344 34.0961 29.6379 34.344 29.8853L37.792 33.3333H31.5573C28.176 33.3333 25.344 30.9573 24.3813 27.712C23.6717 29.7731 22.6945 31.7321 21.4747 33.5387C23.8373 36.6373 27.456 38.6667 31.5573 38.6667H37.792L34.344 42.1147C34.0964 42.3623 33.9 42.6562 33.766 42.9797C33.632 43.3032 33.5631 43.6499 33.5631 44C33.5631 44.3501 33.632 44.6968 33.766 45.0203C33.9 45.3438 34.0964 45.6378 34.344 45.8853C34.5916 46.1329 34.8855 46.3293 35.209 46.4633C35.5325 46.5973 35.8792 46.6663 36.2293 46.6663C36.5795 46.6663 36.9262 46.5973 37.2497 46.4633C37.5732 46.3293 37.8671 46.1329 38.1147 45.8853L48 36L38.1147 26.1147C37.8672 25.8668 37.5734 25.6702 37.2498 25.536C36.9263 25.4019 36.5796 25.3328 36.2293 25.3328C35.8791 25.3328 35.5323 25.4019 35.2088 25.536C34.8853 25.6702 34.5914 25.8668 34.344 26.1147Z" fill="#26262E"/>
</svg>
