<svg width="47" height="48" viewBox="0 0 47 48" fill="none" xmlns="http://www.w3.org/2000/svg">
<path d="M42.2812 24L45.1875 27.6328C45.4688 27.9922 45.6875 28.3828 45.8438 28.8047C46 29.2266 46.0781 29.6719 46.0781 30.1406C46.0781 30.6094 46.0078 31.0547 45.8672 31.4766C45.7266 31.8984 45.5234 32.2812 45.2578 32.625C44.9922 32.9688 44.6719 33.2656 44.2969 33.5156C43.9219 33.7656 43.5156 33.9531 43.0781 34.0781L38.6016 35.3203C38.6328 36.1172 38.6719 36.9219 38.7188 37.7344C38.7656 38.5469 38.7969 39.3594 38.8125 40.1719C38.8125 40.7344 38.7109 41.2578 38.5078 41.7422C38.3047 42.2266 38.0156 42.6484 37.6406 43.0078C37.2656 43.3672 36.8359 43.6562 36.3516 43.875C35.8672 44.0938 35.3359 44.2031 34.7578 44.2031C34.2734 44.2031 33.7969 44.1172 33.3281 43.9453L28.9922 42.3047L26.4375 46.1719C26.0625 46.75 25.5781 47.1953 24.9844 47.5078C24.3906 47.8203 23.7422 47.9844 23.0391 48C22.3516 48 21.7109 47.8438 21.1172 47.5312C20.5234 47.2188 20.0312 46.7656 19.6406 46.1719L17.0859 42.3047L12.75 43.9453C12.2812 44.1172 11.8047 44.2031 11.3203 44.2031C10.7578 44.2031 10.2344 44.1016 9.75 43.8984C9.26562 43.6953 8.83594 43.4062 8.46094 43.0312C8.08594 42.6562 7.79688 42.2266 7.59375 41.7422C7.39062 41.2578 7.28125 40.7344 7.26562 40.1719C7.26562 39.3594 7.28906 38.5469 7.33594 37.7344C7.38281 36.9219 7.42969 36.1172 7.47656 35.3203L3 34.0781C2.54688 33.9531 2.14062 33.7656 1.78125 33.5156C1.42188 33.2656 1.10938 32.9688 0.84375 32.625C0.578125 32.2812 0.375 31.8984 0.234375 31.4766C0.09375 31.0547 0.015625 30.6094 0 30.1406C0 29.6875 0.078125 29.25 0.234375 28.8281C0.390625 28.4062 0.609375 28.0078 0.890625 27.6328L3.79688 24L0.890625 20.3672C0.296875 19.6328 0 18.7969 0 17.8594C0 17.3906 0.0703125 16.9453 0.210938 16.5234C0.351562 16.1016 0.554688 15.7188 0.820312 15.375C1.08594 15.0312 1.39844 14.7344 1.75781 14.4844C2.11719 14.2344 2.53125 14.0469 3 13.9219L7.47656 12.6797C7.44531 11.8828 7.40625 11.0781 7.35938 10.2656C7.3125 9.45312 7.28125 8.64062 7.26562 7.82812C7.26562 7.26562 7.36719 6.74219 7.57031 6.25781C7.77344 5.77344 8.0625 5.35156 8.4375 4.99219C8.8125 4.63281 9.24219 4.34375 9.72656 4.125C10.2109 3.90625 10.7422 3.79688 11.3203 3.79688C11.8047 3.79688 12.2812 3.88281 12.75 4.05469L17.0859 5.69531L19.6406 1.82812C20.0156 1.25 20.5 0.804688 21.0938 0.492188C21.6875 0.179688 22.3359 0.015625 23.0391 0C23.7266 0 24.3672 0.15625 24.9609 0.46875C25.5547 0.78125 26.0469 1.23438 26.4375 1.82812L28.9922 5.69531L33.3281 4.05469C33.7969 3.88281 34.2734 3.79688 34.7578 3.79688C35.3203 3.79688 35.8438 3.89844 36.3281 4.10156C36.8125 4.30469 37.2422 4.59375 37.6172 4.96875C37.9922 5.34375 38.2812 5.77344 38.4844 6.25781C38.6875 6.74219 38.7969 7.26562 38.8125 7.82812C38.8125 8.64062 38.7891 9.45312 38.7422 10.2656C38.6953 11.0781 38.6484 11.8828 38.6016 12.6797L43.0781 13.9219C43.5156 14.0469 43.9219 14.2344 44.2969 14.4844C44.6719 14.7344 44.9844 15.0312 45.2344 15.375C45.4844 15.7188 45.6875 16.1016 45.8438 16.5234C46 16.9453 46.0781 17.3906 46.0781 17.8594C46.0781 18.7969 45.7812 19.6328 45.1875 20.3672L42.2812 24ZM20.0391 32.6484L33.375 19.3359L30.7031 16.6641L20.0391 27.3516L15.375 22.6641L12.7031 25.3359L20.0391 32.6484Z" fill="#49ADF4"/>
</svg>
